<svg width="98" height="52" viewBox="0 0 98 52" fill="none" xmlns="http://www.w3.org/2000/svg">
<g clip-path="url(#clip0)">
<g filter="url(#filter0_d)">
<path d="M67.7103 20.2667C67.7103 20.2667 68.6322 24 67.1869 24C65.7417 24 63 20.6708 63 18.8667C63 17.4667 63.5234 17 64.5701 17C66.0153 17 67.7103 19.8 67.7103 20.2667Z" fill="#06160B"/>
<path d="M67.1713 20.1803C67.1993 20.2492 67.208 20.2833 67.2103 20.2907V20.3275L67.2248 20.3864L67.2248 20.3864L67.2249 20.3865L67.2249 20.3865L67.2252 20.3878L67.2268 20.3944L67.2335 20.4225C67.2394 20.4478 67.248 20.4856 67.2587 20.5342C67.28 20.6315 67.3092 20.7714 67.3399 20.9397C67.4017 21.2784 67.4679 21.7224 67.4913 22.16C67.5153 22.61 67.4904 22.9999 67.4041 23.2584C67.3624 23.3835 67.3174 23.4431 67.2894 23.4684C67.2718 23.4842 67.2489 23.5 67.1869 23.5C66.9916 23.5 66.6586 23.3737 66.2203 23.0496C65.8009 22.7395 65.352 22.2983 64.9384 21.7931C64.5255 21.2888 64.1595 20.7351 63.8992 20.2084C63.6341 19.6719 63.5 19.2064 63.5 18.8667C63.5 18.2092 63.6267 17.896 63.7647 17.7422C63.8894 17.6032 64.1103 17.5 64.5701 17.5C64.776 17.5 65.0475 17.6042 65.3718 17.8458C65.688 18.0814 66.0051 18.4111 66.2912 18.77C66.5757 19.127 66.8172 19.4974 66.9853 19.8014C67.0696 19.9537 67.1318 20.0828 67.1713 20.1803Z" stroke="black"/>
</g>
<g filter="url(#filter1_d)">
<path d="M78.7686 32.0361C76.2686 38.0361 76.3585 39.5937 72.7686 39.5937C71.1182 39.5937 68.415 37.0678 67.2687 35.8983C65.9216 34.5241 70.0781 32.5361 70.0781 32.5361C70.0781 32.5361 70.9904 31.5698 71.5781 31.0361C72.0129 30.6413 71.6094 29.3771 72.0781 29.0361C73.1824 28.2326 75.0781 28.5361 75.0781 28.5361C75.0781 28.5361 80.7686 25.9785 78.7686 32.0361Z" fill="#414A35"/>
<path d="M70.2938 32.9872L70.2939 32.9871L70.294 32.9871L70.294 32.9871L70.3778 32.947L70.4417 32.8793L70.4417 32.8793L70.4417 32.8793L70.4418 32.8792L70.4422 32.8787L70.4441 32.8768L70.4516 32.8689L70.481 32.8379C70.5067 32.8108 70.5441 32.7715 70.591 32.7225C70.6848 32.6245 70.8159 32.4884 70.9652 32.3358C71.2658 32.0284 71.6321 31.6624 71.9142 31.4063C72.1481 31.1939 72.2299 30.9044 72.2666 30.6892C72.3022 30.4811 72.3088 30.2521 72.3142 30.0659C72.3145 30.054 72.3148 30.0422 72.3152 30.0307C72.3215 29.8179 72.3285 29.6594 72.3535 29.536C72.3664 29.4722 72.3795 29.4422 72.3852 29.4311C72.8155 29.1246 73.4366 29.0075 74.0123 28.9844C74.2934 28.9731 74.544 28.9849 74.724 28.9996C74.8137 29.0069 74.8849 29.0148 74.9327 29.0208C74.9565 29.0237 74.9744 29.0262 74.9857 29.0278L74.9976 29.0296L74.9991 29.0298L74.9993 29.0298L74.9995 29.0299L74.9997 29.0299L74.9997 29.0299L75.1467 29.0534L75.2827 28.9923L75.2828 28.9923L75.2828 28.9923L75.2831 28.9921L75.2845 28.9915L75.2937 28.9875C75.3025 28.9837 75.3163 28.9777 75.3347 28.97C75.3716 28.9546 75.427 28.932 75.4976 28.9049C75.6391 28.8507 75.84 28.7793 76.0748 28.7115C76.5558 28.5725 77.1318 28.4626 77.6234 28.512C78.0972 28.5596 78.4151 28.7398 78.5735 29.1242C78.7548 29.5643 78.7831 30.39 78.2997 31.8615C77.892 32.8405 77.5501 33.7088 77.2526 34.4645C77.0964 34.8612 76.9524 35.2268 76.8176 35.5612C76.4177 36.5525 76.0979 37.2683 75.7578 37.7929C75.4268 38.3034 75.0912 38.6092 74.6647 38.8002C74.2232 38.9979 73.6378 39.0937 72.7686 39.0937C72.4712 39.0937 72.0759 38.9757 71.6002 38.7347C71.1331 38.4981 70.631 38.1648 70.1317 37.7862C69.1337 37.0293 68.1905 36.1245 67.6257 35.5483C67.5279 35.4485 67.5054 35.3729 67.501 35.3184C67.4957 35.2547 67.5111 35.1602 67.5816 35.0265C67.7298 34.7455 68.0516 34.422 68.4728 34.0984C68.8823 33.7839 69.3375 33.5055 69.6953 33.3037C69.8731 33.2035 70.0244 33.1235 70.1307 33.0689C70.1837 33.0416 70.2255 33.0208 70.2535 33.0069L70.2849 32.9915L70.2923 32.9879L70.2938 32.9872Z" stroke="black" stroke-opacity="0.97"/>
</g>
<g filter="url(#filter2_d)">
<path d="M77.3286 34.7025C78.1621 33.6921 78.2521 32.8005 78.5 32.5C79.6251 31.136 80 30 80 30C80 30 81.024 29.3284 82.1916 29.2325C83.2687 29.1439 84.4555 28.6471 84.6606 29.453C84.6608 29.4398 84.6628 29.4506 84.6657 29.4743C84.6827 29.5492 84.6916 29.6348 84.6916 29.7325C84.6916 29.7325 84.6745 29.5455 84.6657 29.4743C84.6641 29.4671 84.6624 29.46 84.6606 29.453C84.6603 29.4805 84.6678 29.6106 84.6916 29.942C84.7516 30.7798 83.8286 34.2025 83.8286 34.2025L82.3286 36.7025C81.4551 37.597 80.8286 38.2025 80.3286 38.2025H78.3286C78.3286 38.2025 76.2035 36.0665 77.3286 34.7025Z" fill="#0E1E14"/>
<path d="M78.5 32.5C78.2521 32.8005 78.1621 33.6921 77.3286 34.7025C76.2035 36.0665 78.3286 38.2025 78.3286 38.2025C78.3286 38.2025 79.8286 38.2025 80.3286 38.2025C80.8286 38.2025 81.4551 37.597 82.3286 36.7025L83.8286 34.2025C83.8286 34.2025 84.7516 30.7798 84.6916 29.942C84.6218 28.9682 84.6916 29.7325 84.6916 29.7325C84.6916 28.5447 83.3753 29.1352 82.1916 29.2325C81.024 29.3284 80 30 80 30C80 30 79.6251 31.136 78.5 32.5Z" stroke="black"/>
</g>
<g filter="url(#filter3_d)">
<path d="M92.5995 27.7735C90.4523 32.1958 76.034 29.5536 74.814 29.0332C65.9936 25.2708 64.0608 18.6002 66.2079 14.1778C68.3551 9.75547 76.414 7.79179 84.0895 11.5184C91.765 15.2451 94.7466 23.3511 92.5995 27.7735Z" fill="url(#paint0_linear)"/>
<path d="M92.1497 27.5551C91.7186 28.443 90.6186 29.062 88.9793 29.4207C87.3676 29.7734 85.375 29.8429 83.3805 29.7573C81.3916 29.6719 79.4277 29.4336 77.8855 29.1842C77.1148 29.0595 76.4525 28.9326 75.9479 28.8215C75.426 28.7066 75.1128 28.6171 75.0102 28.5733C66.3621 24.8843 64.6745 18.4808 66.6577 14.3962C67.6369 12.3796 70.0133 10.8459 73.1633 10.2845C76.2977 9.72589 80.1245 10.1491 83.8712 11.9682C87.6033 13.7802 90.1866 16.6534 91.5758 19.5984C92.9725 22.5593 93.1354 25.525 92.1497 27.5551Z" stroke="black"/>
</g>
<g filter="url(#filter4_d)">
<path d="M72.6937 29.1372C63.8733 25.3747 66.3871 16.1937 67.8871 14.6937L67.3871 17.6937C67.3871 18.6937 67.8871 19.6937 67.8871 19.6937C68.8871 22.1937 69.2862 22.1099 70.3871 20.6937C71.0001 19.9051 71.3788 18.7026 71.8871 18.6937C72.1591 18.3507 75.8871 23.6937 76.3871 24.1937C76.8871 24.6937 77.4812 25.2438 78.6937 25.1372C79.0728 25.1038 79.8897 24.645 80.6937 24.1206L81.0146 23.8495C81.9666 22.9117 83.4857 20.5382 83.4857 21.7625C83.4857 23.0639 82.2884 24.4211 82.1937 27.1372C82.1428 28.5954 82.8971 30.1951 83.5332 30.9295L85.1099 30.9801C80.1 31.4985 73.5129 29.4866 72.6937 29.1372Z" fill="url(#paint1_radial)"/>
<path d="M80.9676 24.5389L80.9927 24.5225L80.995 24.5206C81.117 24.4372 81.2378 24.3306 81.3515 24.2195L81.3519 24.2192L82.6374 23.1335C82.6123 23.2001 82.5863 23.2685 82.5595 23.3389C82.511 23.4666 82.4598 23.6012 82.4063 23.7459C82.0866 24.6103 81.744 25.6856 81.694 27.1197C81.6655 27.9356 81.8614 28.7691 82.1397 29.4858C82.2896 29.8717 82.4676 30.2347 82.6568 30.553C80.8789 30.4936 79.0412 30.221 77.4297 29.894C75.0684 29.4151 73.2544 28.8328 72.8899 28.6773C68.6655 26.8753 67.1888 23.8097 66.9179 21.0187C66.8333 20.1465 66.8667 19.2988 66.9744 18.5234C67.0267 18.7858 67.0959 19.0261 67.1628 19.2268C67.2304 19.4298 67.2981 19.5991 67.3494 19.7187C67.3751 19.7787 67.3968 19.8265 67.4125 19.8602C67.4195 19.8751 67.4252 19.8872 67.4297 19.8964C67.6789 20.5183 67.9017 21.008 68.1174 21.3632C68.3224 21.701 68.5819 22.0231 68.9486 22.139C69.367 22.2712 69.7277 22.0848 69.9869 21.8754C70.2448 21.6669 70.5075 21.3534 70.7818 21.0005C71.0335 20.6768 71.2568 20.2773 71.4412 19.9476C71.5009 19.8409 71.5565 19.7415 71.6076 19.6543C71.7163 19.4691 71.8039 19.3377 71.8787 19.2528C71.9754 19.3476 72.102 19.4852 72.2554 19.6638C72.6402 20.1118 73.1394 20.7526 73.6533 21.4298C74.0039 21.8918 74.3567 22.3647 74.6811 22.7994C74.8316 23.0011 74.976 23.1946 75.1112 23.375C75.3234 23.6582 75.5134 23.9096 75.6667 24.1067C75.8121 24.2937 75.9448 24.4584 76.0335 24.5472C76.2848 24.7984 76.606 25.1117 77.0443 25.3374C77.4948 25.5694 78.0416 25.6964 78.7375 25.6352C78.9033 25.6207 79.0779 25.5654 79.2357 25.5035C79.4007 25.4387 79.5808 25.3532 79.7664 25.256C80.1378 25.0614 80.5577 24.8063 80.9668 24.5394C80.9671 24.5392 80.9673 24.5391 80.9676 24.5389Z" stroke="black"/>
</g>
<g filter="url(#filter5_d)">
<path d="M71 27L72.3333 26H75" stroke="black" stroke-width="0.5"/>
</g>
<g filter="url(#filter6_d)">
<circle cx="90.5" cy="26.5" r="3.5" fill="#193411"/>
<circle cx="90.5" cy="26.5" r="3" stroke="black"/>
</g>
<g filter="url(#filter7_d)">
<path d="M68 36.5503L72.194 39.5503C72.194 39.5503 72.6078 38.6636 73.2016 37.5C73.5696 36.7789 76.5 34.5 76.5 34.5C76.5 34.5 76.4965 32.0503 76.944 32.0503C78.194 32.0502 77.7191 31.9372 78.194 32.0503C79.2686 32.3061 79.9034 32.9846 80.194 34.0503C80.456 35.0108 80.0274 36.2169 79.694 36.5503C79.3607 36.8836 77.694 37.1503 77.694 37.5503C77.694 37.9503 79.1667 39.8333 79 40.5C78.8333 41.1667 76.694 42.5502 76.694 42.5502L74.694 42.5503L72.694 43.0503L70.194 43.5C69.5274 43 67.694 41.5 67.694 41.5C67.694 41.5 65.8607 39.2169 65.194 38.5503C65.194 38.5503 64.7575 37.1979 65.194 36.5503C65.564 36.0014 66.694 35.7613 66.694 35.7613L68 36.5503Z" fill="#7C7D6F"/>
<path d="M77.694 37.5503C77.694 37.9503 79.1667 39.8333 79 40.5C78.8333 41.1667 76.694 42.5502 76.694 42.5502L74.694 42.5503L72.694 43.0503M77.694 37.5503C77.694 37.1503 79.3607 36.8836 79.694 36.5503C80.0274 36.2169 80.456 35.0108 80.194 34.0503C79.9034 32.9846 79.2686 32.3061 78.194 32.0503C77.7191 31.9372 78.194 32.0502 76.944 32.0503C76.4965 32.0503 76.5 34.5 76.5 34.5C76.5 34.5 73.5696 36.7789 73.2016 37.5M77.694 37.5503C77.694 37.5503 74.5 36.5 73.2016 37.5M72.694 43.0503L70.194 43.5C69.5274 43 67.694 41.5 67.694 41.5C67.694 41.5 65.8607 39.2169 65.194 38.5503C65.194 38.5503 64.7575 37.1979 65.194 36.5503C65.564 36.0014 66.694 35.7613 66.694 35.7613L68 36.5503L72.194 39.5503C72.194 39.5503 72.6078 38.6636 73.2016 37.5M72.694 43.0503L76 39.5503" stroke="black"/>
</g>
<g filter="url(#filter8_d)">
<path d="M67 27.01C67 27.01 67.5394 24.8353 68.5 25.01C69.3592 25.1662 69 27.01 69.5 27.01C70 27.01 72 28.51 72 28.51L71 32.51L69 31.5L67.5 30.5L67 27.01Z" fill="#787469"/>
<path d="M67 27.01C67 27.01 67.5394 24.8353 68.5 25.01C69.3592 25.1662 69 27.01 69.5 27.01C70 27.01 72 28.51 72 28.51L71 32.51L69 31.5L67.5 30.5L67 27.01Z" stroke="black"/>
</g>
<g filter="url(#filter9_d)">
<path d="M76.2079 33.1524C76.2079 34.9933 75.4664 35.3746 74.2079 35.3746C72.9495 35.3746 72.2079 35.2156 72.2079 33.3746C72.2079 31.5337 72.63 30.6524 74.2079 30.6524C76.7079 30.1524 76.9222 30.3746 76.2079 33.1524Z" fill="#757F74"/>
<path d="M75.7237 33.0279L75.7079 33.0891V33.1524C75.7079 34.0272 75.5278 34.4087 75.3355 34.5913C75.1401 34.7769 74.8114 34.8746 74.2079 34.8746C73.5544 34.8746 73.2326 34.8196 73.0454 34.6722C72.8913 34.5508 72.7079 34.2573 72.7079 33.3746C72.7079 32.4632 72.8188 31.918 73.0312 31.6021C73.2075 31.3397 73.5146 31.1524 74.2079 31.1524H74.2574L74.306 31.1427C74.9344 31.017 75.3748 30.9466 75.684 30.9414C75.8359 30.9388 75.928 30.953 75.9811 30.9693C76.0057 30.9768 76.0178 30.9836 76.0221 30.9864C76.0243 30.9878 76.0252 30.9886 76.0253 30.9886L76.0254 30.9887C76.0283 30.9923 76.0904 31.0825 76.0509 31.4687C76.0139 31.8305 75.9027 32.3318 75.7237 33.0279Z" stroke="#121A0B"/>
</g>
<g filter="url(#filter10_d)">
<path d="M81.9811 24.4558L80.2733 25.8432C80.1449 25.9475 80.0077 26.0405 79.8631 26.121C78.4937 26.8842 76.7654 26.4008 75.9646 25.053C74.4797 22.5538 72.3232 19.0925 72 19.5C71.7843 19.7719 71.0105 20.9256 70.2001 22.1497C69.4454 23.2899 67.6725 22.8798 67.5029 21.5231C67.501 21.5077 67.4992 21.4948 67.4969 21.4794C67.4526 21.1831 66.967 17.7584 67.9257 16.119C67.9153 16.1175 67.9049 16.1161 67.8947 16.1147C67.8306 16.1059 67.8393 16 67.904 16C67.945 16 67.9701 16.0454 67.9487 16.0804C67.941 16.0931 67.9333 16.106 67.9257 16.119C69.4322 16.3261 72.4516 16.799 74.5 17.5C75.9343 17.9908 76.7099 18.3518 78.0803 19C79.348 19.5996 80.9204 20.6175 81.3728 20.9156C81.458 20.9717 81.5454 21.0236 81.6358 21.0705C82.9359 21.7457 83.1182 23.5321 81.9811 24.4558Z" fill="url(#paint2_linear)"/>
<path d="M74.5 17.5C72.4374 16.7941 69.3904 16.3196 67.8947 16.1147C67.8306 16.1059 67.8393 16 67.904 16V16C67.945 16 67.9701 16.0454 67.9487 16.0804C66.9593 17.704 67.4522 21.1807 67.4969 21.4794C67.4992 21.4948 67.501 21.5077 67.5029 21.5231V21.5231C67.6725 22.8798 69.4454 23.2899 70.2001 22.1497C71.0105 20.9256 71.7843 19.7719 72 19.5C72.3232 19.0925 74.4797 22.5538 75.9646 25.053C76.7654 26.4008 78.4937 26.8842 79.8631 26.121V26.121C80.0077 26.0405 80.1449 25.9475 80.2733 25.8432L81.9811 24.4558C83.1182 23.5321 82.9359 21.7457 81.6358 21.0705V21.0705C81.5454 21.0236 81.458 20.9717 81.3728 20.9156C80.9204 20.6175 79.348 19.5996 78.0803 19C76.7099 18.3518 75.9343 17.9908 74.5 17.5Z" stroke="black" stroke-opacity="0.49" stroke-width="0.7"/>
</g>
<g filter="url(#filter11_d)">
<path d="M88 16C88 16 86 16.5 85.5 16.5L89.5 20L92 17.5V15.5H90.5C89.8333 15.5 88 16 88 16Z" fill="#283629"/>
<path d="M71.5 7L75.5 11.5L76.7921 13.1254L70 12L71.5 7Z" fill="#283629"/>
<path d="M88 16C88 16 86 16.5 85.5 16.5L89.5 20L92 17.5V15.5H90.5C89.8333 15.5 88 16 88 16Z" stroke="black"/>
<path d="M71.5 7L75.5 11.5L76.7921 13.1254L70 12L71.5 7Z" stroke="black"/>
</g>
<g filter="url(#filter12_d)">
<path d="M79.14 16.8921C80.7885 18.1534 83.5 22 83.5 22C83.5 22 79.8974 19.6731 78.14 18.8921C76.3826 18.111 75.873 17.7211 74 17.285C72.2858 16.8859 70.8974 16.7397 69.14 16.6421L64.64 16.3921C64.64 16.3921 63.64 15.8921 64.14 15.3921C64.64 14.8921 65.7814 14.7029 67.5 14.3921C69.6482 14.0036 71.5534 13.7502 73.64 14.3921C75.8951 15.0858 77.2662 15.4584 79.14 16.8921Z" fill="url(#paint3_linear)"/>
<path d="M79.14 16.8921C80.7885 18.1534 83.5 22 83.5 22C83.5 22 79.8974 19.6731 78.14 18.8921C76.3826 18.111 75.873 17.7211 74 17.285C72.2858 16.8859 70.8974 16.7397 69.14 16.6421L64.64 16.3921C64.64 16.3921 63.64 15.8921 64.14 15.3921C64.64 14.8921 65.7814 14.7029 67.5 14.3921C69.6482 14.0036 71.5534 13.7502 73.64 14.3921C75.8951 15.0858 77.2662 15.4584 79.14 16.8921Z" stroke="#10160A"/>
</g>
<g filter="url(#filter13_d)">
<line x1="69.2219" y1="39.6672" x2="72.2219" y2="41.6672" stroke="black" stroke-width="0.8"/>
</g>
<g filter="url(#filter14_d)">
<path d="M72.2 40L71.9764 42.8882" stroke="black" stroke-width="0.5"/>
</g>
<path d="M0 8C0 3.58172 3.58172 0 8 0H41C45.4183 0 49 3.58172 49 8V13.3548V16.8192V20.2835V26C49 30.4183 45.4183 34 41 34H8C3.58172 34 0 30.4183 0 26V8Z" fill="#969C84"/>
<path d="M66 26.5L47.291 14.5L47.291 23.5L66 26.5Z" fill="#969C84" stroke="#969C84" stroke-linejoin="round"/>
<path d="M14.2759 17.3301H11.5952L10.9932 19H10.123L12.5664 12.6016H13.3047L15.7524 19H14.8867L14.2759 17.3301ZM11.8501 16.6357H14.0254L12.9355 13.6431L11.8501 16.6357ZM17.8223 17.8091L18.9297 14.2451H19.7998L17.8882 19.7339C17.5923 20.5249 17.1221 20.9204 16.4775 20.9204L16.3237 20.9072L16.0205 20.8501V20.1909L16.2402 20.2085C16.5156 20.2085 16.7295 20.1528 16.8818 20.0415C17.0371 19.9302 17.1646 19.7266 17.2642 19.4307L17.4443 18.9473L15.748 14.2451H16.6357L17.8223 17.8091ZM23.4648 18.5298C23.1484 18.9019 22.6841 19.0879 22.0718 19.0879C21.5649 19.0879 21.1782 18.9414 20.9116 18.6484C20.6479 18.3525 20.5146 17.916 20.5117 17.3389V14.2451H21.3247V17.3169C21.3247 18.0376 21.6177 18.3979 22.2036 18.3979C22.8247 18.3979 23.2378 18.1665 23.4429 17.7036V14.2451H24.2559V19H23.4824L23.4648 18.5298ZM25.2974 16.583C25.2974 15.8535 25.4702 15.2676 25.8159 14.8252C26.1616 14.3799 26.6143 14.1572 27.1738 14.1572C27.7305 14.1572 28.1714 14.3477 28.4966 14.7285V12.25H29.3096V19H28.5625L28.5229 18.4902C28.1978 18.8887 27.7451 19.0879 27.165 19.0879C26.6143 19.0879 26.1646 18.8623 25.8159 18.4111C25.4702 17.96 25.2974 17.3711 25.2974 16.6445V16.583ZM26.1104 16.6753C26.1104 17.2144 26.2217 17.6362 26.4443 17.9409C26.667 18.2456 26.9746 18.3979 27.3672 18.3979C27.8828 18.3979 28.2593 18.1665 28.4966 17.7036V15.5195C28.2534 15.0713 27.8799 14.8472 27.376 14.8472C26.9775 14.8472 26.667 15.001 26.4443 15.3086C26.2217 15.6162 26.1104 16.0718 26.1104 16.6753ZM33.5107 19C33.4639 18.9062 33.4258 18.7393 33.3965 18.499C33.0186 18.8916 32.5674 19.0879 32.043 19.0879C31.5742 19.0879 31.189 18.9561 30.8872 18.6924C30.5884 18.4258 30.439 18.0889 30.439 17.6816C30.439 17.1865 30.6265 16.8027 31.0015 16.5303C31.3794 16.2549 31.9097 16.1172 32.5923 16.1172H33.3833V15.7437C33.3833 15.4595 33.2983 15.2339 33.1284 15.0669C32.9585 14.897 32.708 14.812 32.377 14.812C32.0869 14.812 31.8438 14.8853 31.6475 15.0317C31.4512 15.1782 31.353 15.3555 31.353 15.5635H30.5356C30.5356 15.3262 30.6191 15.0977 30.7861 14.8779C30.9561 14.6553 31.1846 14.4795 31.4717 14.3506C31.7617 14.2217 32.0796 14.1572 32.4253 14.1572C32.9731 14.1572 33.4023 14.2949 33.7129 14.5703C34.0234 14.8428 34.1846 15.2192 34.1963 15.6997V17.8882C34.1963 18.3247 34.252 18.6719 34.3633 18.9297V19H33.5107ZM32.1616 18.3804C32.4165 18.3804 32.6582 18.3145 32.8867 18.1826C33.1152 18.0508 33.2808 17.8794 33.3833 17.6685V16.6929H32.7461C31.75 16.6929 31.252 16.9844 31.252 17.5674C31.252 17.8223 31.3369 18.0215 31.5068 18.165C31.6768 18.3086 31.895 18.3804 32.1616 18.3804ZM36.3804 17.1938H35.6465L35.5894 12.6016H36.4419L36.3804 17.1938ZM35.5586 18.5913C35.5586 18.4595 35.5981 18.3496 35.6772 18.2617C35.7593 18.1709 35.8794 18.1255 36.0376 18.1255C36.1958 18.1255 36.3159 18.1709 36.3979 18.2617C36.48 18.3496 36.521 18.4595 36.521 18.5913C36.521 18.7231 36.48 18.833 36.3979 18.9209C36.3159 19.0059 36.1958 19.0483 36.0376 19.0483C35.8794 19.0483 35.7593 19.0059 35.6772 18.9209C35.5981 18.833 35.5586 18.7231 35.5586 18.5913Z" fill="black"/>
</g>
<defs>
<filter id="filter0_d" x="59" y="17" width="13" height="15" filterUnits="userSpaceOnUse" color-interpolation-filters="sRGB">
<feFlood flood-opacity="0" result="BackgroundImageFix"/>
<feColorMatrix in="SourceAlpha" type="matrix" values="0 0 0 0 0 0 0 0 0 0 0 0 0 0 0 0 0 0 127 0"/>
<feOffset dy="4"/>
<feGaussianBlur stdDeviation="2"/>
<feColorMatrix type="matrix" values="0 0 0 0 0 0 0 0 0 0 0 0 0 0 0 0 0 0 0.25 0"/>
<feBlend mode="normal" in2="BackgroundImageFix" result="effect1_dropShadow"/>
<feBlend mode="normal" in="SourceGraphic" in2="effect1_dropShadow" result="shape"/>
</filter>
<filter id="filter1_d" x="63" y="28" width="20.1947" height="19.5937" filterUnits="userSpaceOnUse" color-interpolation-filters="sRGB">
<feFlood flood-opacity="0" result="BackgroundImageFix"/>
<feColorMatrix in="SourceAlpha" type="matrix" values="0 0 0 0 0 0 0 0 0 0 0 0 0 0 0 0 0 0 127 0"/>
<feOffset dy="4"/>
<feGaussianBlur stdDeviation="2"/>
<feColorMatrix type="matrix" values="0 0 0 0 0 0 0 0 0 0 0 0 0 0 0 0 0 0 0.25 0"/>
<feBlend mode="normal" in2="BackgroundImageFix" result="effect1_dropShadow"/>
<feBlend mode="normal" in="SourceGraphic" in2="effect1_dropShadow" result="shape"/>
</filter>
<filter id="filter2_d" x="72.4991" y="28.4999" width="16.6952" height="18.2026" filterUnits="userSpaceOnUse" color-interpolation-filters="sRGB">
<feFlood flood-opacity="0" result="BackgroundImageFix"/>
<feColorMatrix in="SourceAlpha" type="matrix" values="0 0 0 0 0 0 0 0 0 0 0 0 0 0 0 0 0 0 127 0"/>
<feOffset dy="4"/>
<feGaussianBlur stdDeviation="2"/>
<feColorMatrix type="matrix" values="0 0 0 0 0 0 0 0 0 0 0 0 0 0 0 0 0 0 0.25 0"/>
<feBlend mode="normal" in2="BackgroundImageFix" result="effect1_dropShadow"/>
<feBlend mode="normal" in="SourceGraphic" in2="effect1_dropShadow" result="shape"/>
</filter>
<filter id="filter3_d" x="58" y="5" width="43.3628" height="38.8075" filterUnits="userSpaceOnUse" color-interpolation-filters="sRGB">
<feFlood flood-opacity="0" result="BackgroundImageFix"/>
<feColorMatrix in="SourceAlpha" type="matrix" values="0 0 0 0 0 0 0 0 0 0 0 0 0 0 0 0 0 0 127 0"/>
<feOffset dy="4"/>
<feGaussianBlur stdDeviation="2"/>
<feColorMatrix type="matrix" values="0 0 0 0 0 0 0 0 0 0 0 0 0 0 0 0 0 0 0.25 0"/>
<feBlend mode="normal" in2="BackgroundImageFix" result="effect1_dropShadow"/>
<feBlend mode="normal" in="SourceGraphic" in2="effect1_dropShadow" result="shape"/>
</filter>
<filter id="filter4_d" x="59" y="14" width="36.7869" height="29.9629" filterUnits="userSpaceOnUse" color-interpolation-filters="sRGB">
<feFlood flood-opacity="0" result="BackgroundImageFix"/>
<feColorMatrix in="SourceAlpha" type="matrix" values="0 0 0 0 0 0 0 0 0 0 0 0 0 0 0 0 0 0 127 0"/>
<feOffset dy="4"/>
<feGaussianBlur stdDeviation="2"/>
<feColorMatrix type="matrix" values="0 0 0 0 0 0 0 0 0 0 0 0 0 0 0 0 0 0 0.25 0"/>
<feBlend mode="normal" in2="BackgroundImageFix" result="effect1_dropShadow"/>
<feBlend mode="normal" in="SourceGraphic" in2="effect1_dropShadow" result="shape"/>
</filter>
<filter id="filter5_d" x="66.85" y="25.75" width="12.15" height="9.45" filterUnits="userSpaceOnUse" color-interpolation-filters="sRGB">
<feFlood flood-opacity="0" result="BackgroundImageFix"/>
<feColorMatrix in="SourceAlpha" type="matrix" values="0 0 0 0 0 0 0 0 0 0 0 0 0 0 0 0 0 0 127 0"/>
<feOffset dy="4"/>
<feGaussianBlur stdDeviation="2"/>
<feColorMatrix type="matrix" values="0 0 0 0 0 0 0 0 0 0 0 0 0 0 0 0 0 0 0.25 0"/>
<feBlend mode="normal" in2="BackgroundImageFix" result="effect1_dropShadow"/>
<feBlend mode="normal" in="SourceGraphic" in2="effect1_dropShadow" result="shape"/>
</filter>
<filter id="filter6_d" x="83" y="23" width="15" height="15" filterUnits="userSpaceOnUse" color-interpolation-filters="sRGB">
<feFlood flood-opacity="0" result="BackgroundImageFix"/>
<feColorMatrix in="SourceAlpha" type="matrix" values="0 0 0 0 0 0 0 0 0 0 0 0 0 0 0 0 0 0 127 0"/>
<feOffset dy="4"/>
<feGaussianBlur stdDeviation="2"/>
<feColorMatrix type="matrix" values="0 0 0 0 0 0 0 0 0 0 0 0 0 0 0 0 0 0 0.25 0"/>
<feBlend mode="normal" in2="BackgroundImageFix" result="effect1_dropShadow"/>
<feBlend mode="normal" in="SourceGraphic" in2="effect1_dropShadow" result="shape"/>
</filter>
<filter id="filter7_d" x="60.5" y="31.5001" width="24.275" height="20.5306" filterUnits="userSpaceOnUse" color-interpolation-filters="sRGB">
<feFlood flood-opacity="0" result="BackgroundImageFix"/>
<feColorMatrix in="SourceAlpha" type="matrix" values="0 0 0 0 0 0 0 0 0 0 0 0 0 0 0 0 0 0 127 0"/>
<feOffset dy="4"/>
<feGaussianBlur stdDeviation="2"/>
<feColorMatrix type="matrix" values="0 0 0 0 0 0 0 0 0 0 0 0 0 0 0 0 0 0 0.25 0"/>
<feBlend mode="normal" in2="BackgroundImageFix" result="effect1_dropShadow"/>
<feBlend mode="normal" in="SourceGraphic" in2="effect1_dropShadow" result="shape"/>
</filter>
<filter id="filter8_d" x="62.4912" y="24.4997" width="14.0744" height="16.7387" filterUnits="userSpaceOnUse" color-interpolation-filters="sRGB">
<feFlood flood-opacity="0" result="BackgroundImageFix"/>
<feColorMatrix in="SourceAlpha" type="matrix" values="0 0 0 0 0 0 0 0 0 0 0 0 0 0 0 0 0 0 127 0"/>
<feOffset dy="4"/>
<feGaussianBlur stdDeviation="2"/>
<feColorMatrix type="matrix" values="0 0 0 0 0 0 0 0 0 0 0 0 0 0 0 0 0 0 0.25 0"/>
<feBlend mode="normal" in2="BackgroundImageFix" result="effect1_dropShadow"/>
<feBlend mode="normal" in="SourceGraphic" in2="effect1_dropShadow" result="shape"/>
</filter>
<filter id="filter9_d" x="68.2079" y="30.4411" width="12.3562" height="12.9335" filterUnits="userSpaceOnUse" color-interpolation-filters="sRGB">
<feFlood flood-opacity="0" result="BackgroundImageFix"/>
<feColorMatrix in="SourceAlpha" type="matrix" values="0 0 0 0 0 0 0 0 0 0 0 0 0 0 0 0 0 0 127 0"/>
<feOffset dy="4"/>
<feGaussianBlur stdDeviation="2"/>
<feColorMatrix type="matrix" values="0 0 0 0 0 0 0 0 0 0 0 0 0 0 0 0 0 0 0.25 0"/>
<feBlend mode="normal" in2="BackgroundImageFix" result="effect1_dropShadow"/>
<feBlend mode="normal" in="SourceGraphic" in2="effect1_dropShadow" result="shape"/>
</filter>
<filter id="filter10_d" x="62.9849" y="15.65" width="24.0982" height="19.1834" filterUnits="userSpaceOnUse" color-interpolation-filters="sRGB">
<feFlood flood-opacity="0" result="BackgroundImageFix"/>
<feColorMatrix in="SourceAlpha" type="matrix" values="0 0 0 0 0 0 0 0 0 0 0 0 0 0 0 0 0 0 127 0"/>
<feOffset dy="4"/>
<feGaussianBlur stdDeviation="2"/>
<feColorMatrix type="matrix" values="0 0 0 0 0 0 0 0 0 0 0 0 0 0 0 0 0 0 0.25 0"/>
<feBlend mode="normal" in2="BackgroundImageFix" result="effect1_dropShadow"/>
<feBlend mode="normal" in="SourceGraphic" in2="effect1_dropShadow" result="shape"/>
</filter>
<filter id="filter11_d" x="65.3579" y="5.99823" width="31.1421" height="22.6861" filterUnits="userSpaceOnUse" color-interpolation-filters="sRGB">
<feFlood flood-opacity="0" result="BackgroundImageFix"/>
<feColorMatrix in="SourceAlpha" type="matrix" values="0 0 0 0 0 0 0 0 0 0 0 0 0 0 0 0 0 0 127 0"/>
<feOffset dy="4"/>
<feGaussianBlur stdDeviation="2"/>
<feColorMatrix type="matrix" values="0 0 0 0 0 0 0 0 0 0 0 0 0 0 0 0 0 0 0.25 0"/>
<feBlend mode="normal" in2="BackgroundImageFix" result="effect1_dropShadow"/>
<feBlend mode="normal" in="SourceGraphic" in2="effect1_dropShadow" result="shape"/>
</filter>
<filter id="filter12_d" x="59.4999" y="13.5001" width="28.4088" height="16.9199" filterUnits="userSpaceOnUse" color-interpolation-filters="sRGB">
<feFlood flood-opacity="0" result="BackgroundImageFix"/>
<feColorMatrix in="SourceAlpha" type="matrix" values="0 0 0 0 0 0 0 0 0 0 0 0 0 0 0 0 0 0 127 0"/>
<feOffset dy="4"/>
<feGaussianBlur stdDeviation="2"/>
<feColorMatrix type="matrix" values="0 0 0 0 0 0 0 0 0 0 0 0 0 0 0 0 0 0 0.25 0"/>
<feBlend mode="normal" in2="BackgroundImageFix" result="effect1_dropShadow"/>
<feBlend mode="normal" in="SourceGraphic" in2="effect1_dropShadow" result="shape"/>
</filter>
<filter id="filter13_d" x="65" y="39.3344" width="11.4438" height="10.6656" filterUnits="userSpaceOnUse" color-interpolation-filters="sRGB">
<feFlood flood-opacity="0" result="BackgroundImageFix"/>
<feColorMatrix in="SourceAlpha" type="matrix" values="0 0 0 0 0 0 0 0 0 0 0 0 0 0 0 0 0 0 127 0"/>
<feOffset dy="4"/>
<feGaussianBlur stdDeviation="2"/>
<feColorMatrix type="matrix" values="0 0 0 0 0 0 0 0 0 0 0 0 0 0 0 0 0 0 0.25 0"/>
<feBlend mode="normal" in2="BackgroundImageFix" result="effect1_dropShadow"/>
<feBlend mode="normal" in="SourceGraphic" in2="effect1_dropShadow" result="shape"/>
</filter>
<filter id="filter14_d" x="66.7507" y="39.8122" width="10.6749" height="11.2638" filterUnits="userSpaceOnUse" color-interpolation-filters="sRGB">
<feFlood flood-opacity="0" result="BackgroundImageFix"/>
<feColorMatrix in="SourceAlpha" type="matrix" values="0 0 0 0 0 0 0 0 0 0 0 0 0 0 0 0 0 0 127 0"/>
<feOffset dy="4"/>
<feGaussianBlur stdDeviation="2"/>
<feColorMatrix type="matrix" values="0 0 0 0 0 0 0 0 0 0 0 0 0 0 0 0 0 0 0.25 0"/>
<feBlend mode="normal" in2="BackgroundImageFix" result="effect1_dropShadow"/>
<feBlend mode="normal" in="SourceGraphic" in2="effect1_dropShadow" result="shape"/>
</filter>
<linearGradient id="paint0_linear" x1="65.2975" y1="29.393" x2="46.7975" y2="35.393" gradientUnits="userSpaceOnUse">
<stop stop-color="#06160B"/>
<stop offset="0.968612" stop-color="#06160B" stop-opacity="0"/>
</linearGradient>
<radialGradient id="paint1_radial" cx="0" cy="0" r="1" gradientUnits="userSpaceOnUse" gradientTransform="translate(69.6937 23.6372) rotate(33.6901) scale(16.225 39.2005)">
<stop stop-color="#8D8F76"/>
<stop offset="1" stop-color="#66694E" stop-opacity="0.62"/>
</radialGradient>
<linearGradient id="paint2_linear" x1="68.5" y1="18.5" x2="80.5" y2="26" gradientUnits="userSpaceOnUse">
<stop stop-color="#777B6C"/>
<stop offset="0.105545" stop-color="#A0A497"/>
<stop offset="0.248428" stop-color="#A4AC8E" stop-opacity="0.316251"/>
<stop offset="0.654055" stop-color="#A0A497" stop-opacity="0.618828"/>
<stop offset="0.776889" stop-color="#A4AC8E" stop-opacity="0.88"/>
<stop offset="1" stop-color="#777B6C" stop-opacity="0"/>
</linearGradient>
<linearGradient id="paint3_linear" x1="69.5" y1="16" x2="76" y2="18.5" gradientUnits="userSpaceOnUse">
<stop offset="0.0996219" stop-color="#212C1C"/>
<stop offset="1" stop-color="#3E4D37"/>
</linearGradient>
<clipPath id="clip0">
<rect width="98" height="52" fill="white"/>
</clipPath>
</defs>
</svg>
